<svg xmlns="http://www.w3.org/2000/svg" viewBox="0 0 75.854 77.042">
  <defs>
    <style>
      .cls-1 {
        fill: #4d8bbf;
      }

      .cls-2 {
        fill: #54b3ff;
      }
    </style>
  </defs>
  <g id="cloudy" transform="translate(-3.951 0)">
    <path id="Path_73" data-name="Path 73" class="cls-1" d="M67.975,30.065a14.537,14.537,0,0,0-1.793-.864,16.013,16.013,0,0,0,.239-2.727c.026-9.017-6.311-20-14.158-24.527C48.315-.331,44.739-.543,42.156.958L37.089,3.9a12.028,12.028,0,0,0-2.115-1.58c-2.074-1.2-3.952-1.309-5.309-.521L24.2,4.977a7.4,7.4,0,0,0-6.508.107L7.412,11.06l.021-.011c-2.142,1.233-3.472,3.868-3.483,7.62C3.929,26.2,9.225,35.375,15.776,39.157L57.614,63.312c3.314,1.913,6.314,2.08,8.474.806-.01.006-.019.015-.03.021l10.283-5.976c2.13-1.238,3.451-3.87,3.462-7.612C79.826,43.023,74.529,33.85,67.975,30.065Z" transform="translate(0 0)"/>
    <path id="Path_74" data-name="Path 74" class="cls-2" d="M41.98,41.664c7.847,4.531,14.184,15.51,14.158,24.527a16.014,16.014,0,0,1-.239,2.727,14.539,14.539,0,0,1,1.793.864c6.554,3.784,11.851,12.958,11.829,20.485s-5.352,10.569-11.907,6.785L15.776,72.9C9.226,69.115,3.929,59.941,3.951,52.409s5.352-10.565,11.9-6.783c.462.267.913.566,1.36.884,0-.068-.007-.137-.007-.206.014-4.736,3.363-6.644,7.484-4.265A13.684,13.684,0,0,1,28.38,45.3C30.2,39.7,35.6,37.983,41.98,41.664Z" transform="translate(0 -33.74)"/>
    <path id="Path_75" data-name="Path 75" class="cls-1" d="M124.026,246.815a9.592,9.592,0,0,0-1.184-.57,10.553,10.553,0,0,0,.158-1.8c.017-5.956-4.168-13.207-9.351-16.2-2.608-1.505-4.97-1.645-6.675-.654l-3.347,1.945a7.942,7.942,0,0,0-1.4-1.043,3.476,3.476,0,0,0-3.506-.344l-3.608,2.1a4.886,4.886,0,0,0-4.3.071l-6.792,3.947.014-.007c-1.415.814-2.293,2.555-2.3,5.033-.014,4.974,3.484,11.033,7.811,13.531l27.633,15.954c2.189,1.264,4.171,1.374,5.6.532l-.02.014,6.792-3.947c1.407-.818,2.28-2.556,2.287-5.028C131.854,255.373,128.355,249.314,124.026,246.815Z" transform="translate(-66.084 -192.806)"/>
    <path id="Path_76" data-name="Path 76" class="cls-2" d="M106.856,254.475c5.183,2.992,9.368,10.244,9.351,16.2a10.615,10.615,0,0,1-.158,1.8,9.607,9.607,0,0,1,1.184.57c4.329,2.5,7.827,8.558,7.813,13.53s-3.535,6.981-7.864,4.482L89.549,275.1c-4.327-2.5-7.825-8.557-7.811-13.531s3.535-6.978,7.862-4.48c.305.176.6.374.9.584,0-.045,0-.091,0-.136.009-3.128,2.221-4.388,4.943-2.817a9.035,9.035,0,0,1,2.437,2.155C99.075,253.175,102.646,252.044,106.856,254.475Z" transform="translate(-66.083 -215.091)"/>
  </g>
</svg>
