<svg xmlns="http://www.w3.org/2000/svg" viewBox="0 0 82.121 102.674">
  <defs>
    <style>
      .cls-1 {
        fill: #d8d8da;
      }

      .cls-2 {
        fill: #fff;
      }

      .cls-3 {
        fill: #77767e;
      }

      .cls-4 {
        fill: #cd2a01;
      }

      .cls-5 {
        fill: #ff3502;
      }

      .cls-6 {
        fill: #ad2201;
      }

      .cls-7 {
        fill: #c6c5cb;
      }

      .cls-8 {
        fill: #e0e0e2;
      }
    </style>
  </defs>
  <g id="stopwatch" transform="translate(-51.245 0.001)">
    <path id="Path_100" data-name="Path 100" class="cls-1" d="M101.088,50.308c-9-5.2-17.155-5.679-23.044-2.257L60.692,58.219l.057-.032c-5.846,3.365-9.474,10.56-9.5,20.8-.058,20.552,14.393,45.583,32.279,55.91,9.113,5.261,17.357,5.687,23.262,2.123-.073.044-.145.09-.219.134l17.352-10.168c5.813-3.378,9.418-10.562,9.447-20.773C133.424,85.664,118.972,60.633,101.088,50.308Z" transform="translate(0 -36.669)"/>
    <g id="Group_28" data-name="Group 28" transform="translate(57.478 15.369)">
      <path id="Path_101" data-name="Path 101" class="cls-2" d="M137.736,105.234c12.617,21.854,12.55,45.436-.149,52.673-6.35,3.618-14.655,2.466-22.951-2.324s-16.581-13.215-22.889-24.142C79.13,109.589,79.2,86.006,91.9,78.769c6.35-3.618,14.655-2.466,22.951,2.324S131.428,94.308,137.736,105.234Z" transform="translate(-82.328 -76.644)"/>
    </g>
    <path id="Path_102" data-name="Path 102" class="cls-3" d="M168.938,170.041a1.176,1.176,0,0,0-1.171-.118c-.646.37-.648,1.572,0,2.685a3.355,3.355,0,0,0,1.164,1.227,1.176,1.176,0,0,0,1.171.118c.646-.37.648-1.572,0-2.685a3.356,3.356,0,0,0-1.164-1.227m-30.986-17.85a1.175,1.175,0,0,0-1.171-.118c-.646.37-.648,1.572-.006,2.684a3.359,3.359,0,0,0,1.166,1.229,1.178,1.178,0,0,0,1.171.118c.646-.37.648-1.572,0-2.685a3.35,3.35,0,0,0-1.165-1.229m37.377,39.358,0,0c-.913-.525-1.654-.1-1.655.949a3.631,3.631,0,0,0,1.646,2.848l0,0c.912.524,1.652.1,1.654-.948a3.628,3.628,0,0,0-1.645-2.849M131.5,166.3l0,0c-.913-.527-1.654-.1-1.657.944a3.63,3.63,0,0,0,1.648,2.852c.912.524,1.652.1,1.655-.947A3.626,3.626,0,0,0,131.5,166.3m37.39,39.373a1.172,1.172,0,0,0-1.17-.117c-.646.372-.648,1.574,0,2.687a3.363,3.363,0,0,0,1.165,1.226,1.177,1.177,0,0,0,1.172.118c.645-.373.646-1.575,0-2.686a3.363,3.363,0,0,0-1.165-1.228M137.87,187.807a1.178,1.178,0,0,0-1.171-.118c-.646.368-.65,1.569-.006,2.684a3.355,3.355,0,0,0,1.165,1.228,1.175,1.175,0,0,0,1.17.118c.646-.368.65-1.569.008-2.683a3.363,3.363,0,0,0-1.166-1.229m15.524,16.346-.006,0-.021-.012-.025-.015c-.913-.527-1.654-.105-1.657.944a3.627,3.627,0,0,0,1.646,2.851l.025.014.025.015,0,0c.912.523,1.652.1,1.654-.952a3.627,3.627,0,0,0-1.644-2.844m.065-50.411,0,0c-.912-.526-1.652-.1-1.654.948a3.627,3.627,0,0,0,1.648,2.85c.912.524,1.652.1,1.655-.949a3.628,3.628,0,0,0-1.646-2.848" transform="translate(-62.833 -121.491)"/>
    <path id="Path_103" data-name="Path 103" class="cls-4" d="M250.708,210.139l-1.286.747-17.666,11.04a6.193,6.193,0,0,0-1.2-.919,2.637,2.637,0,0,0-2.639-.261l-1.286.747c.023-.013.046-.024.069-.036a1.745,1.745,0,0,0-.245.153c-1.346,1.009-1.181,3.8.366,6.24a7.362,7.362,0,0,0,2.423,2.438,2.63,2.63,0,0,0,2.657.252l-.014.009,1.286-.747a1.806,1.806,0,0,0,.174-.116c1.031-.775,1.174-2.6.489-4.5ZM228.9,223.923a1.9,1.9,0,0,1,.365.164,3.339,3.339,0,0,1,1.1,1.105,3.142,3.142,0,0,1,.541,2.177,1.889,1.889,0,0,1-.365-.163,3.336,3.336,0,0,1-1.1-1.1A3.148,3.148,0,0,1,228.9,223.923Z" transform="translate(-139.349 -168)"/>
    <g id="Group_31" data-name="Group 31" transform="translate(86.199 42.139)">
      <g id="Group_29" data-name="Group 29" transform="translate(1.087 10.358)">
        <path id="Path_104" data-name="Path 104" class="cls-5" d="M236.166,276.125l1.286-.747a.788.788,0,0,0-.079.052c-.609.458-.535,1.724.167,2.829a3.334,3.334,0,0,0,1.1,1.1,1.2,1.2,0,0,0,1.2.118l-1.286.747a1.2,1.2,0,0,1-1.2-.118,3.339,3.339,0,0,1-1.1-1.1c-.7-1.105-.776-2.371-.167-2.829A.764.764,0,0,1,236.166,276.125Z" transform="translate(-234.73 -272.653)"/>
        <path id="Path_105" data-name="Path 105" class="cls-5" d="M230.966,262.786l1.286-.747a2.637,2.637,0,0,1,2.639.262,6.218,6.218,0,0,1,1.232.953l-1.286.747a6.206,6.206,0,0,0-1.232-.953A2.637,2.637,0,0,0,230.966,262.786Z" transform="translate(-230.966 -261.79)"/>
      </g>
      <g id="Group_30" data-name="Group 30" transform="translate(6.343)">
        <path id="Path_106" data-name="Path 106" class="cls-6" d="M258.462,289.777l-1.286.747a1.765,1.765,0,0,0,.174-.116c1.031-.775,1.174-2.6.489-4.5l1.286-.747c.685,1.905.542,3.729-.489,4.5A1.668,1.668,0,0,1,258.462,289.777Z" transform="translate(-257.176 -270.114)"/>
        <path id="Path_107" data-name="Path 107" class="cls-6" d="M277.352,210.886l1.286-.747L261.77,225.183l-1.286.747Z" transform="translate(-259.821 -210.139)"/>
      </g>
      <path id="Path_108" data-name="Path 108" class="cls-4" d="M249.421,213.866,232.553,228.91c.685,1.905.542,3.729-.489,4.5a2.527,2.527,0,0,1-2.817-.146,7.359,7.359,0,0,1-2.423-2.438c-1.547-2.435-1.712-5.231-.366-6.24a2.523,2.523,0,0,1,2.815.145,6.219,6.219,0,0,1,1.232.953ZM230.531,231c.609-.458.536-1.723-.166-2.827a3.339,3.339,0,0,0-1.1-1.105A1.145,1.145,0,0,0,227.99,227c-.609.458-.535,1.724.167,2.829a3.334,3.334,0,0,0,1.1,1.1,1.143,1.143,0,0,0,1.276.066" transform="translate(-225.547 -213.119)"/>
    </g>
    <path id="Path_109" data-name="Path 109" class="cls-1" d="M101.088,50.308c-9-5.2-17.155-5.679-23.044-2.257L60.692,58.219l.057-.031c-5.846,3.365-9.474,10.56-9.5,20.8-.058,20.552,14.393,45.583,32.279,55.91,9.112,5.261,17.357,5.687,23.261,2.123-.073.044-.145.09-.219.133l17.352-10.168c5.813-3.378,9.418-10.562,9.447-20.773C133.424,85.664,118.972,60.633,101.088,50.308Zm3.949,76.852c-4.268,1.009-9.475.046-15.092-3.2C75.528,115.639,63.88,95.464,63.927,78.9c.018-6.35,1.753-11.246,4.7-14.4,4.268-1.009,9.475-.044,15.091,3.2,14.416,8.323,26.065,28.5,26.018,45.065C109.715,119.107,107.98,124,105.036,127.16Z" transform="translate(0 -36.669)"/>
    <g id="Group_33" data-name="Group 33" transform="translate(51.245 9.197)">
      <path id="Path_110" data-name="Path 110" class="cls-7" d="M90.186,130.81l6.4-3.719c-4.686,2.723-7.591,8.514-7.614,16.743-.047,16.567,11.6,36.742,26.018,45.066l-6.4,3.719c-14.417-8.324-26.065-28.5-26.018-45.066C82.595,139.324,85.5,133.533,90.186,130.81Z" transform="translate(-76.289 -110.802)"/>
      <g id="Group_32" data-name="Group 32" transform="translate(9.447)">
        <path id="Path_111" data-name="Path 111" class="cls-8" d="M237.288,437.135l-6.4,3.719c-4.746,2.758-11.319,2.37-18.573-1.819l6.4-3.719C225.969,439.5,232.542,439.893,237.288,437.135Z" transform="translate(-189.462 -357.218)"/>
        <path id="Path_112" data-name="Path 112" class="cls-8" d="M98.353,58.218,115.7,48.05c5.888-3.422,14.043-2.94,23.044,2.257L121.4,60.475C112.4,55.279,104.241,54.8,98.353,58.218Z" transform="translate(-98.353 -45.865)"/>
      </g>
      <path id="Path_113" data-name="Path 113" class="cls-7" d="M253.448,144.7,236.1,154.865c5.813-3.378,9.418-10.562,9.447-20.772.058-20.551-14.393-45.582-32.278-55.908l17.352-10.168c17.885,10.326,32.336,35.357,32.278,55.908C262.866,134.135,259.261,141.319,253.448,144.7Z" transform="translate(-180.775 -63.575)"/>
      <path id="Path_114" data-name="Path 114" class="cls-1" d="M83.736,101.012c17.885,10.326,32.336,35.357,32.278,55.908s-14.6,28.842-32.489,18.516-32.337-35.358-32.279-55.91S65.85,90.686,83.736,101.012Zm-.191,67.207c14.416,8.323,26.141,1.642,26.188-14.925s-11.6-36.742-26.018-45.065-26.141-1.642-26.188,14.924,11.6,36.742,26.018,45.066" transform="translate(-51.245 -86.402)"/>
    </g>
    <path id="Path_115" data-name="Path 115" class="cls-8" d="M351.28,152.324a16.172,16.172,0,0,0-8.55-11.928c-2.124-.955-3.954-.878-5.2.017l.011-.009-4.518,3.219c-1.261.9-1.925,2.632-1.694,4.982a16.175,16.175,0,0,0,8.55,11.929c2.117.952,3.943.879,5.187-.008l4.518-3.219c-.036.026-.075.049-.113.074C350.806,156.507,351.519,154.743,351.28,152.324Z" transform="translate(-223.881 -111.695)"/>
    <g id="Group_34" data-name="Group 34" transform="translate(107.403 28.016)">
      <path id="Path_116" data-name="Path 116" class="cls-1" d="M349.587,160.074l-4.518,3.219c-1.245.887-3.071.96-5.187.008a16.173,16.173,0,0,1-8.55-11.929c-.232-2.35.433-4.084,1.694-4.982l4.518-3.219c-1.261.9-1.926,2.632-1.694,4.982a16.175,16.175,0,0,0,8.55,11.929C346.516,161.034,348.342,160.961,349.587,160.074Z" transform="translate(-331.286 -142.477)"/>
      <path id="Path_117" data-name="Path 117" class="cls-8" d="M369.293,152.324c.461,4.672-2.621,6.907-6.882,4.991a16.174,16.174,0,0,1-8.55-11.929c-.461-4.672,2.621-6.905,6.882-4.99A16.172,16.172,0,0,1,369.293,152.324Z" transform="translate(-349.297 -139.71)"/>
    </g>
    <g id="Group_35" data-name="Group 35" transform="translate(80.363 -0.001)">
      <path id="Path_118" data-name="Path 118" class="cls-1" d="M215.5,5.658c.06-1.459-.873-2.931-2.8-4.045a14.819,14.819,0,0,0-13.448,0c-1.845,1.072-2.765,2.476-2.764,3.882,0,0,0-.009,0-.013l-.039,11.09c0,1.419.932,2.839,2.807,3.921a14.821,14.821,0,0,0,13.45,0c1.839-1.069,2.759-2.467,2.763-3.868l.039-11.09C215.5,5.576,215.5,5.617,215.5,5.658Z" transform="translate(-196.446 0.001)"/>
      <path id="Path_119" data-name="Path 119" class="cls-1" d="M215.506,27.391l-.039,11.09c0,1.4-.924,2.8-2.763,3.868a14.821,14.821,0,0,1-13.45,0c-1.875-1.082-2.811-2.5-2.807-3.921l.039-11.09c0,1.419.932,2.839,2.807,3.921a14.821,14.821,0,0,0,13.45,0C214.581,30.191,215.5,28.792,215.506,27.391Z" transform="translate(-196.447 -21.856)"/>
    </g>
    <path id="Path_120" data-name="Path 120" class="cls-8" d="M212.852,1.613c3.726,2.151,3.746,5.639.044,7.791a14.821,14.821,0,0,1-13.45,0c-3.726-2.151-3.744-5.639-.043-7.79A14.819,14.819,0,0,1,212.852,1.613Z" transform="translate(-116.238 -0.001)"/>
  </g>
</svg>
