<svg id="icon_1_" data-name="icon (1)" xmlns="http://www.w3.org/2000/svg" viewBox="0 0 167.913 167.913">
  <defs>
    <style>
      .cls-1 {
        fill: #ffda0b;
      }
    </style>
  </defs>
  <path id="Path_121" data-name="Path 121" class="cls-1" d="M163.862,74.428H153.681a70.479,70.479,0,0,0-60.307-60.2L93.349,4.039C93.343,1.812,92.137,0,90.627,0L77.255.012c-1.5,0-2.715,1.812-2.715,4.058l.012,10.162a70.524,70.524,0,0,0-60.295,60.2H4.051C1.812,74.428,0,75.64,0,77.15V90.522c0,1.5,1.812,2.715,4.051,2.715H14.22a70.5,70.5,0,0,0,60.325,60.437l.025,10.181c0,2.245,1.206,4.058,2.715,4.058l13.36-.025c1.509,0,2.715-1.812,2.715-4.045V153.668a70.489,70.489,0,0,0,60.344-60.437h10.15c2.245,0,4.058-1.219,4.058-2.715V77.143C167.919,75.64,166.107,74.428,163.862,74.428Zm-51.814,18.81h16.261a45.357,45.357,0,0,1-35.071,35.046V112.022a2.249,2.249,0,0,0-2.245-2.245H76.933a2.241,2.241,0,0,0-2.245,2.245v16.261a45.309,45.309,0,0,1-35.04-35.046H55.915a2.26,2.26,0,0,0,2.245-2.258V76.933a2.26,2.26,0,0,0-2.245-2.258H39.648a45.354,45.354,0,0,1,35.04-35.046V55.9a2.239,2.239,0,0,0,2.245,2.233H90.992A2.246,2.246,0,0,0,93.238,55.9V39.623a45.4,45.4,0,0,1,35.071,35.046H112.047a2.252,2.252,0,0,0-2.245,2.258V90.974A2.249,2.249,0,0,0,112.047,93.238Z"/>
</svg>
