<svg id="artificial-intelligence" xmlns="http://www.w3.org/2000/svg" viewBox="0 0 153.037 153.037">
  <defs>
    <style>
      .cls-1 {
        fill: #ffda0b;
      }
    </style>
  </defs>
  <g id="Group_36" data-name="Group 36" transform="translate(0 0)">
    <path id="Path_123" data-name="Path 123" class="cls-1" d="M151.875,63.316a2.551,2.551,0,0,0-2.511-2.1H135.77a59.59,59.59,0,0,0-6.538-15.769l9.617-9.617a2.549,2.549,0,0,0,.288-3.263A75.162,75.162,0,0,0,120.472,13.9a2.55,2.55,0,0,0-3.263.288l-9.617,9.617a59.594,59.594,0,0,0-15.769-6.538V3.673a2.551,2.551,0,0,0-2.1-2.511,75.953,75.953,0,0,0-26.405,0,2.482,2.482,0,0,0-.542.2A24.166,24.166,0,0,0,30.633,23.094c-.6.066-1.2.169-1.784.281-.108.021-.219.029-.327.051-.721.148-1.429.333-2.124.547-.22.068-.43.156-.647.231-.471.161-.942.322-1.4.513-.259.108-.506.236-.76.352-.4.184-.8.367-1.188.573-.265.141-.519.3-.778.45-.359.21-.718.419-1.065.648-.257.169-.5.352-.754.532-.331.237-.659.476-.976.731-.243.195-.476.4-.711.6-.3.264-.6.531-.891.809-.226.218-.444.443-.661.67-.276.289-.545.583-.8.885q-.308.358-.6.728c-.248.314-.486.634-.718.96-.182.257-.362.515-.534.779-.219.337-.426.682-.627,1.032-.157.272-.314.543-.461.822-.19.361-.362.731-.533,1.1-.13.283-.263.564-.381.854-.159.388-.3.785-.434,1.183-.1.289-.207.574-.3.868-.127.422-.229.855-.331,1.286-.068.283-.147.561-.2.848-.1.486-.161.981-.226,1.477-.032.244-.08.483-.1.729-.074.747-.115,1.5-.115,2.27a22.524,22.524,0,0,0,1.815,8.952c-.16.1-.3.222-.456.325-.415.272-.812.567-1.209.862a25.526,25.526,0,0,0-2.607,2.2c-.094.091-.2.174-.289.267-.479.478-.922.983-1.36,1.5-.146.171-.292.341-.433.516-.425.527-.832,1.063-1.213,1.621-.106.155-.2.316-.3.473a25.169,25.169,0,0,0-2.669,5.424c-.159.451-.315.9-.45,1.365-.122.424-.23.851-.331,1.283-.139.592-.251,1.192-.347,1.8-.055.349-.119.693-.16,1.046-.036.3-.06.612-.085.92-.008.051-.039.093-.043.145C0,75.242,0,75.879,0,76.519A25.554,25.554,0,0,0,8.682,95.672a24.056,24.056,0,0,0-2.6,5.913c-.034.117-.069.234-.1.352a24.27,24.27,0,0,0-.611,2.91c-.024.162-.039.325-.059.488A24.63,24.63,0,0,0,5.1,108.4a24.109,24.109,0,0,0,18.743,23.611c.073.283.172.555.254.835s.159.544.247.813c.2.617.425,1.221.666,1.817.077.191.147.384.229.573a27.935,27.935,0,0,0,4.043,6.651c.1.123.207.241.31.362q.665.785,1.382,1.52c.158.161.318.318.479.476q.67.652,1.382,1.256c.191.163.379.326.574.484.483.389.982.757,1.489,1.114.194.137.381.281.578.413.693.462,1.4.9,2.137,1.3.134.073.276.132.411.2.6.316,1.214.616,1.841.888.312.136.633.251.95.376.47.184.942.363,1.424.522.349.115.7.218,1.056.32q.721.207,1.457.375c.348.08.7.158,1.049.225.55.1,1.106.184,1.666.255.3.038.6.087.905.115.872.082,1.751.134,2.64.134a27.9,27.9,0,0,0,10.735-2.144,2.526,2.526,0,0,0,1.569.982,75.593,75.593,0,0,0,26.405,0,2.551,2.551,0,0,0,2.1-2.511v-13.6a59.589,59.589,0,0,0,15.769-6.538l9.617,9.617a2.546,2.546,0,0,0,3.263.288,75.162,75.162,0,0,0,18.664-18.664,2.549,2.549,0,0,0-.288-3.263l-9.617-9.617a59.594,59.594,0,0,0,6.538-15.769h13.595a2.551,2.551,0,0,0,2.511-2.1A75.6,75.6,0,0,0,151.875,63.316ZM51.012,147.936c-.741,0-1.473-.042-2.2-.111-.261-.025-.516-.07-.775-.1-.455-.059-.91-.122-1.357-.207-.306-.059-.607-.133-.91-.2-.391-.092-.78-.188-1.163-.3-.31-.091-.617-.189-.922-.293q-.554-.187-1.094-.4c-.293-.116-.586-.234-.873-.362-.374-.166-.739-.346-1.1-.531-.255-.13-.512-.256-.762-.4-.424-.237-.835-.493-1.241-.755-.171-.11-.349-.212-.517-.326a23.137,23.137,0,0,1-3.294-2.724c-.033-.033-.062-.068-.1-.1q-.7-.707-1.337-1.471c-.076-.091-.146-.186-.221-.278-.371-.46-.727-.932-1.062-1.419-.086-.126-.168-.254-.253-.382q-.459-.7-.869-1.429-.128-.23-.252-.463c-.251-.473-.482-.959-.7-1.451-.078-.177-.158-.352-.232-.531-.2-.486-.378-.984-.545-1.486-.064-.192-.134-.381-.193-.575-.159-.525-.291-1.061-.412-1.6-.04-.176-.09-.348-.126-.525a22.939,22.939,0,0,1,4.136-18.3,2.55,2.55,0,0,0-4.078-3.064,27.813,27.813,0,0,0-5.613,16.838c0,.5.049,1,.076,1.5A19.03,19.03,0,0,1,10.2,108.4a19.342,19.342,0,0,1,.255-3.136c.018-.11.059-.212.079-.321a18.77,18.77,0,0,1,3.646-8.191c.017-.022.02-.052.037-.075a19.05,19.05,0,0,1,9.487-6.566,2.551,2.551,0,1,0-1.5-4.877,24.214,24.214,0,0,0-10.386,6.4A20.442,20.442,0,0,1,5.1,76.519a20.749,20.749,0,0,1,.178-2.559c.034-.271.079-.538.123-.8.1-.58.221-1.151.364-1.715.074-.286.135-.576.221-.857a20.238,20.238,0,0,1,.748-2.059c.167-.391.361-.766.552-1.144.158-.316.322-.629.5-.936.234-.41.474-.817.736-1.21.15-.226.318-.44.477-.66a20.613,20.613,0,0,1,1.611-1.954c.226-.241.448-.485.687-.715.312-.3.636-.6.967-.879.365-.311.745-.606,1.133-.892.308-.228.613-.456.933-.667A20.863,20.863,0,0,1,16.161,58.4a20.258,20.258,0,0,1,9.345-2.286,2.551,2.551,0,0,0,0-5.1,25.334,25.334,0,0,0-8.886,1.628,17.527,17.527,0,0,1-1.317-6.73,17.857,17.857,0,0,1,33.321-8.925,2.551,2.551,0,1,0,4.416-2.556,23.039,23.039,0,0,0-17.277-11.3,19.117,19.117,0,0,1,38.2,1.1V39.993L62.893,55.5l-9.368-4.111c.006-.126.038-.246.038-.374A7.73,7.73,0,1,0,51.581,56.1l9.264,4.066a5.061,5.061,0,0,0,2.031.425,5.133,5.133,0,0,0,4.17-2.132l6.922-9.692v20.1H53.092a7.652,7.652,0,1,0,0,5.1H73.967v10.2H68.4a7.652,7.652,0,1,0,0,5.1h5.571v10.2H53.1a5.113,5.113,0,0,0-5,4.1l-1.8,9a7.6,7.6,0,1,0,5.149.261l1.652-8.261H73.967V124.98A22.98,22.98,0,0,1,51.012,147.936ZM48.462,51.012a2.551,2.551,0,1,1-2.551-2.551A2.551,2.551,0,0,1,48.462,51.012Zm0,20.405a2.551,2.551,0,1,1-2.551-2.551A2.551,2.551,0,0,1,48.462,71.417Zm15.3,15.3a2.551,2.551,0,1,1-2.551-2.551A2.551,2.551,0,0,1,63.766,86.721ZM51.012,119.879a2.551,2.551,0,1,1-2.551-2.551A2.55,2.55,0,0,1,51.012,119.879ZM147.2,86.721H133.754a2.549,2.549,0,0,0-2.491,2,54.63,54.63,0,0,1-7.409,17.866,2.55,2.55,0,0,0,.343,3.182l9.51,9.51a70.019,70.019,0,0,1-14.426,14.426l-9.51-9.51a2.553,2.553,0,0,0-3.182-.343,54.643,54.643,0,0,1-17.866,7.409,2.55,2.55,0,0,0-2,2.491V147.2a71.088,71.088,0,0,1-18.863.168,28,28,0,0,0,11.211-22.383V112.1a35.668,35.668,0,0,0,0-71.159V24.231A24.187,24.187,0,0,0,70.087,5.424a71,71,0,0,1,16.634.417V19.283a2.549,2.549,0,0,0,2,2.491,54.63,54.63,0,0,1,17.866,7.409,2.547,2.547,0,0,0,3.182-.343l9.51-9.51a70.019,70.019,0,0,1,14.426,14.426l-9.51,9.51a2.55,2.55,0,0,0-.343,3.182,54.644,54.644,0,0,1,7.409,17.866,2.55,2.55,0,0,0,2.491,2H147.2A70.72,70.72,0,0,1,147.2,86.721Zm-52.823-10.2a17.866,17.866,0,0,0-15.3-17.651V46.04a30.583,30.583,0,0,1,0,60.957V94.169A17.867,17.867,0,0,0,94.373,76.519Zm-15.3,12.5V64.023a12.753,12.753,0,0,1,0,24.99Z" transform="translate(0 0)"/>
  </g>
</svg>
