<svg xmlns="http://www.w3.org/2000/svg" viewBox="0 0 163.174 97.268">
  <defs>
    <style>
      .cls-1 {
        fill: #ffda0b;
      }
    </style>
  </defs>
  <g id="eye" transform="translate(0 -98.725)">
    <path id="Path_122" data-name="Path 122" class="cls-1" d="M81.587,98.725c-31.176,0-59.448,17.057-80.31,44.762a6.459,6.459,0,0,0,0,7.711c20.862,27.738,49.134,44.795,80.31,44.795s59.448-17.057,80.311-44.762a6.459,6.459,0,0,0,0-7.711C141.036,115.782,112.763,98.725,81.587,98.725Zm2.236,82.881a34.32,34.32,0,1,1,32.011-32.011A34.341,34.341,0,0,1,83.824,181.606Zm-1.035-15.822a18.48,18.48,0,1,1,17.257-17.257A18.45,18.45,0,0,1,82.789,165.784Z"/>
  </g>
</svg>
